<?xml version="1.0" encoding="UTF-8" standalone="no"?>
<svg
   version="1.1"
   width="8.2937193in"
   height="7.5122061in"
   viewBox="0 0 597.14802 540.87904"
   id="svg1"
   xml:space="preserve"
   xmlns:xlink="http://www.w3.org/1999/xlink"
   xmlns="http://www.w3.org/2000/svg"
   xmlns:svg="http://www.w3.org/2000/svg"><defs
     id="defs1"><linearGradient
       id="linearGradient9"><stop
         style="stop-color:#20679c;stop-opacity:1;"
         offset="0"
         id="stop9" /><stop
         style="stop-color:#66b0d8;stop-opacity:1;"
         offset="1"
         id="stop10" /></linearGradient><linearGradient
       id="linearGradient7"><stop
         style="stop-color:#d09900;stop-opacity:1;"
         offset="0"
         id="stop7" /><stop
         style="stop-color:#f0ba11;stop-opacity:1;"
         offset="0.39131871"
         id="stop8" /></linearGradient><linearGradient
       id="linearGradient5"><stop
         style="stop-color:#e9ac00;stop-opacity:1;"
         offset="0"
         id="stop5" /><stop
         style="stop-color:#ffe66c;stop-opacity:1;"
         offset="1"
         id="stop6" /></linearGradient><linearGradient
       xlink:href="#linearGradient5"
       id="linearGradient6"
       x1="617.71417"
       y1="310.91205"
       x2="390.79648"
       y2="249.50194"
       gradientUnits="userSpaceOnUse"
       gradientTransform="translate(-1.8259999,-45.250551)" /><linearGradient
       xlink:href="#linearGradient7"
       id="linearGradient8"
       x1="518.5575"
       y1="533.61401"
       x2="389.49384"
       y2="43.612656"
       gradientUnits="userSpaceOnUse"
       gradientTransform="translate(-1.8259999,-45.250551)" /><linearGradient
       xlink:href="#linearGradient9"
       id="linearGradient10"
       x1="2.55"
       y1="316.00702"
       x2="280.86652"
       y2="316.00702"
       gradientUnits="userSpaceOnUse"
       gradientTransform="translate(-1.8259999,-45.250551)" /></defs><path
     style="display:none;fill:none;fill-opacity:1;stroke:#000000;stroke-width:1.65652px;stroke-linecap:butt;stroke-linejoin:miter;stroke-opacity:1"
     d="m 33.095516,275.57583 c 5.385822,2.79567 9.494254,5.67005 9.494254,5.67005 l 3.659598,3.70124 4.729862,4.25246 3.556044,5.00062 7.112045,10.11941 5.454879,16.02577 2.658394,10.74938 2.865519,25.20015 0.621448,29.13754 1.795278,35.79209 3.314365,15.35637 3.279811,8.22934 4.902496,11.26135 4.488185,5.90636 4.108435,3.85868 5.523911,6.10327 11.63478,6.65435 10.1157,3.50434 13.22289,3.58324 17.95278,5.27624 8.97635,0.3149 7.52637,0.4725 17.12417,-0.19696 26.27316,0.11865 12.01453,1.41755 5.45491,0.35434 4.7989,1.61445 10.32284,3.9374 5.3513,2.59875 -2.5203,-5.23679 -8.11326,-4.17373 -11.42761,-4.05576 -9.8395,-2.16552 -8.63115,-0.90577 -26.72198,-1.37809 -8.11326,-0.59052 -18.71231,-0.23634 -9.52877,-0.55125 -9.49426,-2.16568 -6.69775,-3.07129 -9.35614,-3.34687 -9.5288,-3.70124 c 0,0 -7.45728,-5.98494 -7.52634,-6.18182 -0.0691,-0.19695 -9.183532,-14.21446 -9.183532,-14.21446 L 90.544367,438.94389 88.127641,426.5801 86.574022,411.30243 v -7.48118 l -0.172696,-6.53635 -0.138152,-17.79767 -0.414271,-38.90262 -3.970325,-20.04193 -2.796485,-7.24501 -4.350104,-10.71012 -4.798919,-8.78057 -10.460912,-11.1826 -5.800145,-4.64628 -11.496663,-4.88261 -4.833433,-1.65372 -4.315583,-0.0778 -0.863111,1.57499 z"
     id="path1" /><ellipse
     style="fill:#28170b;fill-opacity:1;stroke:none;stroke-width:2.448;stroke-linejoin:round;stroke-dasharray:none;stroke-opacity:1;paint-order:stroke fill markers"
     id="path10"
     cx="433.71829"
     cy="21.259398"
     rx="6.7115502"
     ry="6.4592361" /><path
     id="path11"
     fill="none"
     stroke="#000000"
     stroke-width="1"
     d="m 351.534,63.649449 c 8.62,-0.62 12.71,-6.87 18,-13 1.88,-2.18 5.13,-6.72 8.02,-7.17 2.6,-0.41 9.24,3.66 11.98,4.83 5.61,2.39 17.92,5.26 24,5.33 14.88,0.18 24.94,-1.11 39,-6.42 7.41,-2.79 22.93,-10.84 30,-10.47 8.21,0.44 14.1,6.38 18.3,12.9 7.61,11.8 6.9,20.02 7.79,33 l 0.91,14 -1,14.000001 v 34 l -0.51,10.42 c 0,17.79 3.06,41.06 11.94,56.58 8.87,15.5 17.9,22.5 33.57,30.37 4.5,2.25 17.85,6.78 18.38,10.72 0.06,3.88 -20.38,11.83 -20.38,11.83 -18.64,8.49 -30.25,20.89 -37.32,40.08 -10.95,29.73 -5.63,70.29 -5.68,102 -0.02,13.79 -2.44,33.37 -10.1,45 -8.05,12.21 -22.01,19.21 -35.9,22.21 -9.95,2.14 -24.87,3.77 -35,3.79 h -39 c -15.91,0.02 -39.33,3.17 -53,11.35 -3.67,2.19 -8.76,6.8 -10.54,10.65 -1.03,1.79 -1.75,4.51 0,5.96 3.18,2.32 10.36,-2.26 13.54,-3.42 11.19,-4.08 23.14,-5.53 35,-5.35 h 34 8 14 9 6 c 11.14,-0.85 16.6,-0.73 28,-3.43 8.2,-1.94 18.87,-5.8 26,-10.23 18.61,-11.55 27.48,-29.87 31.6,-50.53 3.2155,-19.26418 3.71019,-41.61974 2.42,-61 v -21 l 0.89,-12 c 0.74,-10.72 0.93,-16.55 4.91,-27 4.6,-12.11 11.82,-22 23.18,-28.66 13.96,-8.17 34.02,-13.73 34.03,-30.74 0.02,-17.02 -16.34,-20.33 -29.03,-26.72 -5.4,-2.72 -12.74,-8.37 -16.7,-12.9 -10.92,-12.5 -16.27,-33.62 -16.48,-49.98 v -12 -6 l -0.82,-12 0.68,-35.000001 -0.68,-18 c -0.04,-27.26 -12.07,-53.97 -37,-66.75 -6.84,-3.5000005 -15.46,-6.5400005 -23,-8.0500005 -16.77,-3.37 -20.05,-3.4 -37,-3.2 -12.1,0.14 -29.99,4.31 -41,9.3100005 l -10,5.36 c -6.15,3.15 -14.24,1.4 -15.88,10.33 -0.84,6.39 3.96,7.49 0,14.03 -2.09,3 -6.82,9.41 -9.21,11.95 -4.1,4.36 -6.89,4.84 -7.91,11.02 z m 80.74,-49.06 c 10.38,-0.88 10.1405,11.872134 2.86,13.56 -7.16951,1.662134 -13.23,-12.68 -2.86,-13.56 z m 16.9,4.16 5,2 -5,1 z"
     style="display:inline;fill:url(#linearGradient6);fill-opacity:1;stroke:url(#linearGradient8);stroke-width:3.168;stroke-linejoin:round;stroke-dasharray:none;stroke-opacity:1"><title
       id="title11">Selection</title></path><path
     style="display:inline;fill:#ffe66c;fill-opacity:1;stroke:none;stroke-width:1.65652px;stroke-linecap:butt;stroke-linejoin:miter;stroke-opacity:1"
     d="m 566.51126,265.76518 c -11.74471,5.15109 -19.43663,9.7511 -26.39676,15.83269 -5.43522,4.74916 -10.63594,10.85455 -16.22939,26.20489 -11.32009,44.96485 -4.775,58.82633 -3.19788,101.82036 -0.77954,15.47972 -2.81667,34.31411 -12.33106,48.81297 -9.41378,15.92069 -31.70119,27.14586 -61.07751,28.68085 -57.73142,2.62537 -75.57738,-3.84662 -108.23261,8.7192 -7.59313,2.92185 2.39769,-8.15343 11.42954,-11.47112 24.86688,-7.05416 44.76165,-6.06703 72.3722,-5.94002 17.75624,0.0817 35.16857,-1.13365 51.0334,-6.91565 25.7182,-11.55719 32.50609,-24.40879 34.74215,-52.70576 2.3089,-27.39332 -1.35673,-58.27885 0.76032,-85.66578 4.88632,-35.28466 14.49125,-54.5323 43.6729,-68.00136 10.53738,-4.8742 15.71237,-7.90865 19.41263,-11.26092 0.98856,-0.89559 3.96692,7.15924 -5.95793,11.88965 z"
     id="path3" /><circle
     style="display:inline;fill:#28170b;fill-opacity:1;stroke:none;stroke-width:2.448;stroke-linejoin:round;stroke-dasharray:none;stroke-opacity:1;paint-order:stroke fill markers"
     id="path13"
     cx="169.63728"
     cy="21.528151"
     r="9.0330667" /><path
     id="path12"
     fill="none"
     stroke="#000000"
     stroke-width="1"
     d="m 245.534,63.859449 c -1.02,-7.38 -12.79,-15.67 -16.93,-23 -3.54,-6.26 3.87,-12.65 -2.72,-19.57 -2.63,-2.77 -6.87,-2.65 -10.35,-3.84 l -15,-6.99 c -23.28,-9.4300005 -42.46,-10.08000054 -67,-6.8800005 -16.37,2.13 -33.83,7.7800005 -46,19.4600005 -21.95,21.07 -23,50.55 -23,78.820001 v 53 l -0.92,10 c -1.65,21.01 -4.79,37.91 -21.08,52.91 -4.4,4.05 -9.56,7.3 -15,9.78 -13.1,5.95 -26.3099999,6.77 -26.3099999,25.24 0,20.41 17.7899999,21.58 31.3099999,28.44 10.02,5.09 16.85,12.07 22.55,21.63 9.46,15.89 9.45,33.23 9.45,51 v 51 c 0.02,11.86 1.39,23.54 4.37,35 2.11,8.12 4.27,13.69 8.5,21 13.48,23.28 36.77,32.03 62.04,35.22 0,0 11.46,1.41 22.45,1.89 9.02,0.4 56.64,-1.11 56.64,-1.11 16.24,0.03 35.03,2.21 44.7,17 4.9,7.5 4.43,10.85 5.59,19 0.27,1.93 0.86,5.92 3,6.66 2.39,0.83 3.96,-1.89 4.69,-3.68 1.85,-4.5 2.07,-11.14 2.02,-15.98 -0.38,-35.65 -42.26,-41.97 -70,-42 h -40 c -8.14,-0.01 -25.17,-1.68 -33,-3.63 -8.06,-2 -14.87,-4.05 -22,-8.56 -23.55,-14.87 -25.29,-44.77 -25,-69.81 l 1,-15 1,-23 c 0.03,-19.82 -0.82,-36.13 -7.7,-55 -6.72,-18.45 -20.85,-30.56 -38.3,-38.54 -4.37,-2 -19.82,-5.76 -18.83,-11.56 0.87,-5.15 14.41,-8.58 18.83,-10.68 14.27,-6.82 23.54,-14.7 31.93,-28.22 15.73,-25.35 13.11,-64.09 13.07,-93 l -1,-15 c -0.19,-16.270001 -1.32,-39.640001 6.88,-54.000001 3.74,-6.55 11.06,-14.42 19.12,-14.86 8.05,-0.43 17.83,5.55 25,8.63 11.34,4.88 23.59,8.38 36,9.02 7.15,0.38 23.18,-2.27 30,-4.85 3.51,-1.34 11.78,-6.44 15,-5.53 2.67,0.76 6.14,4.89 8,7.01 5.27,6.03 8.55,11.69 17,12.58 z m -75.36,-49.19 c 10.17,1.01 8.3,14.16 0,13.72 -7.07,-0.37 -10.17,-14.73 0,-13.72 z"
     style="display:inline;fill:url(#linearGradient10);fill-opacity:1;stroke:#05558b;stroke-width:2.448;stroke-dasharray:none;stroke-opacity:1"><title
       id="title12">Selection</title></path><path
     id="path18"
     fill="none"
     stroke="#000000"
     stroke-width="1"
     d="m 156.80752,22.312318 -5,-2 5,-1 z"
     style="display:inline;fill:none;fill-opacity:1;stroke:#05558b;stroke-width:3.168;stroke-linejoin:round;stroke-dasharray:none;stroke-opacity:1"><title
       id="title13">Selection</title></path><path
     style="display:inline;fill:#52a5d3;fill-opacity:1;stroke:none;stroke-width:1.65652px;stroke-linecap:butt;stroke-linejoin:miter;stroke-opacity:1"
     d="m 64.419556,292.47917 c 4.981194,7.81672 9.180619,16.49141 11.898497,39.17592 3.061242,25.55037 -2.067931,56.05902 -0.275867,78.84246 0.33659,17.36224 3.775125,34.76852 13.289511,49.26738 9.178123,12.01112 19.819303,17.29314 31.802103,22.02778 8.9822,3.54905 18.07704,4.74609 30.72644,5.95431 27.69233,0.77478 57.36033,-7.79083 85.06504,1.74721 27.67602,12.52994 29.75751,4.48459 14.40198,-3.55368 -6.0679,-2.87791 -16.3271,-5.34605 -29.08817,-6.40454 -15.461,-1.28245 -34.59455,-0.80702 -54.39605,-0.49325 -13.68259,0.21681 -29.52777,-3.16113 -40.62763,-5.71583 -14.17604,-5.06278 -19.61534,-9.83394 -24.82371,-15.46929 -8.214768,-8.88822 -13.081049,-22.3435 -14.322781,-38.0574 -2.308897,-27.39332 3.464126,-55.6496 1.347073,-83.03653 -2.211008,-20.24721 -6.493869,-34.40803 -13.381529,-46.20169 -5.625924,-9.6332 -16.607291,-17.19881 -30.185052,-24.40961 -2.371702,-1.33988 -8.750615,-3.11884 -12.578526,-4.98091 -6.683734,-3.25129 -7.987386,-6.34405 -8.274942,-4.21819 -0.550076,4.06662 5.535557,7.49758 12.919489,11.95832 6.471813,4.18906 14.160229,9.06053 26.504124,23.56754 z"
     id="path2" /><g
     id="g18"
     style="fill:#000000;fill-opacity:1"
     transform="translate(-1.8259999,-45.250551)"><path
       id="path14"
       fill="none"
       stroke="#000000"
       stroke-width="1"
       d="m 458.22,297.95 c -6.2,1.45 -11.04,4.48 -16.37,7.97 -18.41,12.06 -21.18,34.23 -20.94,54.46 v 14 l 0.9,8 c 0.28,8.86 -2.43,22.81 -7.72,30 -13.43,18.27 -37.92,16.97 -58.24,17.93 -5.91,0.28 -27.73,0.92 -27.64,7.32 0,7.35451 32.64,5.75 32.64,5.75 h 22 c 5.75,-0.07 13.39,-1.67 19,-3.15 5.35,-1.41 11.32,-3.43 16,-6.4 27.03,-17.16 22.96,-54.62 23,-82.27 0.02,-13.58 2.62,-25.6 14,-34.34 2.61,-1.99 4.95,-3.44 8,-4.67 7.37,-2.94 15.73,-2.58 15.67,-14.55 -0.06,-11.97 -10.63,-13.37 -18.67,-17.95 -7.3,-4.17 -12.19,-9.73 -15.05,-17.67 -10.85,-30.08 6.39,-67.64 -17.32,-93.54 -2.87,-3.13 -6.03,-5.93 -9.63,-8.22 -4.53,-2.87 -10.76,-5.25 -16,-6.42 -9.03,-2.03 -15.75,-2.83 -25,-2.82 0,0 -9.73,-0.24 -19.27,0.79 -8.74,0.95 -17.32,3.08 -18.07,5.33 -2.2,6.53 10.48,6.64 14.34,6.85 15.94,0.86 41.22,1.66 54,11.56 15.02,11.63 14.04,28.83 13.55,38.8 -1.08,16.94 -0.37,25.67 -0.37,25.67 1.15,16.13 3.69,33.59 16.83,44.68 6.94,5.87 14.05,10.72 20.36,12.89 z"
       style="display:inline;fill:#000000;fill-opacity:1"><title
         id="title14">Selection</title></path><path
       id="path17"
       fill="none"
       stroke="#000000"
       stroke-width="1"
       d="m 140.81,297.13 c 8.37,-2.57 15.1,-6.65 21.48,-12.21 20.56,-17.91 16.48,-53.98 16.52,-78.65 0.01,-5.34 0.32,-9.89 2.1,-15 6.92,-19.93 29.09,-25.31 47.9,-25.97 l 22,-1.88 c 2.62,-0.32 7.3,-0.49 8.99,-2.85 3.18,-4.45 -2.7,-6.82 -6,-7.25 0,0 -7.66,-1.34 -15.55,-1.83 -8.58,-0.53 -17.44,-0.22 -17.44,-0.22 -6.85,0.08 -17.4,1.34 -24,3.15 -6.69,1.83 -11.35,3.41 -17,7.61 -22.59,16.77 -21.29,44.02 -21,69.24 0,0 -0.05,2.24 0.2,4.16 0.47,2.28 0.46,4.84 0.46,4.84 0.02,4.2 -2.1,17.09 -3.58,21 -2.8,7.4 -7.23,13.6 -14.08,17.79 -8.95,5.46 -19.58,7.64 -19.6,18.15 -0.01,10.51 10.33,13.13 16.6,15.96 5.51,2.49 10.12,6.01 13.45,11.1 10.25,15.63 7.52,40.85 7.55,59 0.01,7.4 0.68,14.81 2.58,22 1.28,4.83 3.25,9.79 5.96,14 16.63,25.74 44.67,24.04 71.46,24 0,0 21.74,-0.78 24.42,-1.09 2.43,-0.4 7.55,-0.59 7.53,-4.09 -0.03,-3.5 -4.48,-4.81 -6.95,-5.4 -9.98,-2.37 -16.04,-2.31 -26,-2.43 -10.28,0.26 -26.02,-2.27 -26.02,-2.27 -4,-0.68 -9.31,-2.32 -12.98,-4.05 -16.72,-7.82 -20.92,-22.61 -21,-39.67 v -35 c -0.17,-14.3 -4.62,-30.69 -16.09,-40.11 -9.27,-7.6 -14.29,-8.82 -21.91,-12.03 z"
       style="display:inline;fill:#000000;fill-opacity:1"><title
         id="title17">Selection</title></path><g
       id="g17"
       style="fill:#000000;fill-opacity:1"><path
         id="path15"
         fill="none"
         stroke="#000000"
         stroke-width="1"
         d="m 380,298 c -4.83,2.29 -9.12,4.11 -12.7,8.32 -9.76,11.51 -1.89,35.08 -7.75,46.68 -4.05,8.01 -13.1,11.28 -21.55,11.91 -3.6,0.27 -11.8,0.35 -14.85,1.81 -2.95,1.42 -5.26,6.11 3.85,6.28 h 16 c 3.93,-0.05 7.2,-0.45 11,-1.49 10.54,-2.88 17.25,-10.71 18.9,-21.51 0,0 0.54,-4.35 0.8,-8.89 0.29,-4.95 0.3,-10.11 0.3,-10.11 0.08,-7.38 -0.6,-14.46 4.93,-20.32 5.7,-6.05 13.76,-6.15 13.81,-12.68 0.04,-6.53 -5.27,-6.91 -9.7,-9.51 -3.78,-2.22 -5.81,-4.35 -7.28,-8.5 -5.42,-15.31 4.73,-36.74 -12.76,-50.6 -2.68,-2.12 -5.77,-3.58 -9,-4.64 -5.1,-1.68 -7.75,-1.74 -13,-1.75 h -10 c -2.59,0.04 -12.29,0.65 -9.83,5.59 1.41,2.83 8.98,3.16 11.83,3.32 7.78,0.43 16.98,1.26 22.67,7.28 10.71,11.3 3.29,31.1 8.14,43.81 3.03,7.94 9.13,11.31 16.19,15 z"
         style="display:inline;fill:#000000;fill-opacity:1"><title
           id="title15">Selection</title></path><path
         id="path16"
         fill="none"
         stroke="#000000"
         stroke-width="1"
         d="m 221.02,297.69 c 2.9,-1.07 4.9,-2.28 7.92,-4.34 8.02,-5.46 11.5,-18.31 10.84,-27.64 -0.58,-8.05 -1.48,-16.7 3.17,-23.98 8.34,-13.08 28.68,-8.52 35.81,-11.88 3.06,-1.47 2.81,-4.28 0,-5.96 -2.24,-1.38 -17.8,-1.17 -17.8,-1.17 -3.32,0.04 -9.83,0.75 -13,1.52 -2.85,0.69 -5.56,1.97 -8,3.58 -19.33,12.76 -9.71,38.65 -14.6,51.93 -1.46,3.98 -3.8,6.46 -7.41,8.6 -4.1,2.44 -9.64,3.44 -9.58,9.35 0.07,5.9 9.81,7.57 14.95,14.12 4.3,5.46 4.43,28.89 4.43,28.89 -0.58,22.28 10.38,31.97 32.21,31.93 h 16.98 c 2.5,0.1 5.22,-1.8 3.85,-4.51 -1.24,-2.47 -5.5,-2.33 -7.83,-2.58 -7.19,-0.78 -15.45,-0.42 -22,-3.6 -15.07,-7.3 -11.84,-24.51 -12.01,-38.24 -0.09,-7.55 -2.6,-15.27 -8.43,-20.39 -3.37,-2.95 -6.6,-4.56 -9.5,-5.63 z"
         style="display:inline;fill:#000000;fill-opacity:1"><title
           id="title16">Selection</title></path></g></g></svg>
